<?xml version="1.0" encoding="UTF-8"?>
<!DOCTYPE svg PUBLIC "-//W3C//DTD SVG 1.1//EN" "http://www.w3.org/Graphics/SVG/1.1/DTD/svg11.dtd">
<svg xmlns="http://www.w3.org/2000/svg" version="1.1" width="64px" height="64px" style="shape-rendering:geometricPrecision; text-rendering:geometricPrecision; image-rendering:optimizeQuality; fill-rule:evenodd; clip-rule:evenodd" xmlns:xlink="http://www.w3.org/1999/xlink">
<g><path style="opacity:1" fill="#b6d2ee" d="M 17.5,-0.5 C 24.5,-0.5 31.5,-0.5 38.5,-0.5C 37.4296,5.94082 38.0963,5.94082 40.5,-0.5C 48.1667,-0.5 55.8333,-0.5 63.5,-0.5C 63.5,-0.166667 63.5,0.166667 63.5,0.5C 58.0156,4.41658 52.6823,8.58325 47.5,13C 47.7284,13.3988 48.0618,13.5654 48.5,13.5C 47.4019,14.397 47.4019,15.2303 48.5,16C 46.2199,16.2117 44.2199,17.0451 42.5,18.5C 41.2528,16.9936 41.2528,15.4936 42.5,14C 41.4214,13.044 40.2547,12.2106 39,11.5C 37.47,12.9202 35.6367,13.9202 33.5,14.5C 35.3381,15.1887 37.0048,15.5221 38.5,15.5C 37.0758,17.2913 35.7424,19.1246 34.5,21C 36.0557,21.7202 37.0557,22.8868 37.5,24.5C 36.8902,25.391 36.5569,26.391 36.5,27.5C 29.6747,18.5211 23.3414,9.18777 17.5,-0.5 Z"/></g>
<g><path style="opacity:1" fill="#b1ccea" d="M -0.5,-0.5 C 2.5,-0.5 5.5,-0.5 8.5,-0.5C 5.52555,2.13794 2.52555,4.80461 -0.5,7.5C -0.5,4.83333 -0.5,2.16667 -0.5,-0.5 Z"/></g>
<g><path style="opacity:1" fill="#5d5da3" d="M 8.5,-0.5 C 11.5,-0.5 14.5,-0.5 17.5,-0.5C 23.3414,9.18777 29.6747,18.5211 36.5,27.5C 44.3012,40.1079 53.3012,51.7746 63.5,62.5C 63.5,62.8333 63.5,63.1667 63.5,63.5C 57.5,63.5 51.5,63.5 45.5,63.5C 46.6253,61.8712 47.9586,60.3712 49.5,59C 38.1023,42.267 25.9356,26.1003 13,10.5C 10.3333,12.5 7.66667,14.5 5,16.5C 4.69661,18.8884 3.86328,21.0551 2.5,23C 1.55198,23.4828 0.551975,23.6495 -0.5,23.5C -0.5,18.1667 -0.5,12.8333 -0.5,7.5C 2.52555,4.80461 5.52555,2.13794 8.5,-0.5 Z"/></g>
<g><path style="opacity:1" fill="#50509c" d="M 38.5,-0.5 C 39.1667,-0.5 39.8333,-0.5 40.5,-0.5C 38.0963,5.94082 37.4296,5.94082 38.5,-0.5 Z"/></g>
<g><path style="opacity:1" fill="#b8d4ef" d="M 63.5,3.5 C 63.5,17.8333 63.5,32.1667 63.5,46.5C 61.5438,43.4611 59.2105,40.6278 56.5,38C 53.4124,37.1533 50.5791,37.6533 48,39.5C 49.0305,36.2654 50.5305,33.0987 52.5,30C 49.5231,21.8232 44.5231,19.9899 37.5,24.5C 37.0557,22.8868 36.0557,21.7202 34.5,21C 35.7424,19.1246 37.0758,17.2913 38.5,15.5C 37.0048,15.5221 35.3381,15.1887 33.5,14.5C 35.6367,13.9202 37.47,12.9202 39,11.5C 40.2547,12.2106 41.4214,13.044 42.5,14C 41.2528,15.4936 41.2528,16.9936 42.5,18.5C 44.2199,17.0451 46.2199,16.2117 48.5,16C 47.4019,15.2303 47.4019,14.397 48.5,13.5C 53.6434,10.425 58.6434,7.09164 63.5,3.5 Z"/></g>
<g><path style="opacity:1" fill="#5557a0" d="M 63.5,0.5 C 63.5,1.5 63.5,2.5 63.5,3.5C 58.6434,7.09164 53.6434,10.425 48.5,13.5C 48.0618,13.5654 47.7284,13.3988 47.5,13C 52.6823,8.58325 58.0156,4.41658 63.5,0.5 Z"/></g>
<g><path style="opacity:1" fill="#b6dac0" d="M 11.5,33.5 C 8.71386,35.1126 6.0472,36.946 3.5,39C 2.07153,39.5791 0.738195,39.4124 -0.5,38.5C -0.5,35.1667 -0.5,31.8333 -0.5,28.5C 2.95627,26.2167 6.2896,23.7167 9.5,21C 14.091,21.3067 18.4243,22.6401 22.5,25C 18.362,27.3145 14.6953,30.1479 11.5,33.5 Z"/></g>
<g><path style="opacity:1" fill="#f6f8f9" d="M 45.5,63.5 C 44.8333,63.5 44.1667,63.5 43.5,63.5C 42.089,61.461 40.089,60.461 37.5,60.5C 36.8333,60.5 36.5,60.1667 36.5,59.5C 39.1391,57.162 38.8058,54.9953 35.5,53C 32.9348,52.3911 30.6015,52.8911 28.5,54.5C 28.5,53.8333 28.1667,53.5 27.5,53.5C 30.0986,51.5207 32.7653,49.5207 35.5,47.5C 36.6114,42.7314 34.7781,39.398 30,37.5C 26.9061,39.6294 23.7394,41.6294 20.5,43.5C 20.5,42.8333 20.1667,42.5 19.5,42.5C 20.8333,41.0665 22.3333,39.7332 24,38.5C 23.1664,29.4892 19.3331,28.1559 12.5,34.5C 12.5,33.8333 12.1667,33.5 11.5,33.5C 14.6953,30.1479 18.362,27.3145 22.5,25C 18.4243,22.6401 14.091,21.3067 9.5,21C 6.2896,23.7167 2.95627,26.2167 -0.5,28.5C -0.5,26.8333 -0.5,25.1667 -0.5,23.5C 0.551975,23.6495 1.55198,23.4828 2.5,23C 3.86328,21.0551 4.69661,18.8884 5,16.5C 7.66667,14.5 10.3333,12.5 13,10.5C 25.9356,26.1003 38.1023,42.267 49.5,59C 47.9586,60.3712 46.6253,61.8712 45.5,63.5 Z"/></g>
<g><path style="opacity:1" fill="#c2e4f1" d="M 19.5,42.5 C 14.601,44.0706 12.601,47.4039 13.5,52.5C 11.6096,52.7035 10.1096,52.0368 9,50.5C 7.13394,48.4809 5.96728,46.1476 5.5,43.5C 5.66667,42.5 5.83333,41.5 6,40.5C 8.06274,38.2659 10.2294,36.2659 12.5,34.5C 19.3331,28.1559 23.1664,29.4892 24,38.5C 22.3333,39.7332 20.8333,41.0665 19.5,42.5 Z"/></g>
<g><path style="opacity:1" fill="#fafbfc" d="M 11.5,33.5 C 12.1667,33.5 12.5,33.8333 12.5,34.5C 10.2294,36.2659 8.06274,38.2659 6,40.5C 5.83333,41.5 5.66667,42.5 5.5,43.5C 5.96728,46.1476 7.13394,48.4809 9,50.5C 10.1096,52.0368 11.6096,52.7035 13.5,52.5C 12.601,47.4039 14.601,44.0706 19.5,42.5C 20.1667,42.5 20.5,42.8333 20.5,43.5C 19.7222,44.1556 19.0556,44.9889 18.5,46C 19.3005,51.3109 22.3005,53.8109 27.5,53.5C 28.1667,53.5 28.5,53.8333 28.5,54.5C 26.1949,55.9894 23.8616,57.4894 21.5,59C 19.9632,60.1096 19.2965,61.6096 19.5,63.5C 17.5,63.5 15.5,63.5 13.5,63.5C 9.1846,57.1897 4.51793,51.1897 -0.5,45.5C -0.5,43.1667 -0.5,40.8333 -0.5,38.5C 0.738195,39.4124 2.07153,39.5791 3.5,39C 6.0472,36.946 8.71386,35.1126 11.5,33.5 Z"/></g>
<g><path style="opacity:1" fill="#b6dac1" d="M 27.5,53.5 C 22.3005,53.8109 19.3005,51.3109 18.5,46C 19.0556,44.9889 19.7222,44.1556 20.5,43.5C 23.7394,41.6294 26.9061,39.6294 30,37.5C 34.7781,39.398 36.6114,42.7314 35.5,47.5C 32.7653,49.5207 30.0986,51.5207 27.5,53.5 Z"/></g>
<g><path style="opacity:1" fill="#f9d33d" d="M 63.5,46.5 C 63.5,51.8333 63.5,57.1667 63.5,62.5C 53.3012,51.7746 44.3012,40.1079 36.5,27.5C 36.5569,26.391 36.8902,25.391 37.5,24.5C 44.5231,19.9899 49.5231,21.8232 52.5,30C 50.5305,33.0987 49.0305,36.2654 48,39.5C 50.5791,37.6533 53.4124,37.1533 56.5,38C 59.2105,40.6278 61.5438,43.4611 63.5,46.5 Z"/></g>
<g><path style="opacity:1" fill="#c4e4ed" d="M 36.5,59.5 C 31.2914,56.0128 27.9581,57.3461 26.5,63.5C 24.1667,63.5 21.8333,63.5 19.5,63.5C 19.2965,61.6096 19.9632,60.1096 21.5,59C 23.8616,57.4894 26.1949,55.9894 28.5,54.5C 30.6015,52.8911 32.9348,52.3911 35.5,53C 38.8058,54.9953 39.1391,57.162 36.5,59.5 Z"/></g>
<g><path style="opacity:1" fill="#5e5fa6" d="M -0.5,45.5 C 4.51793,51.1897 9.1846,57.1897 13.5,63.5C 10.1667,63.5 6.83333,63.5 3.5,63.5C 2.65974,61.1475 1.3264,59.1475 -0.5,57.5C -0.5,53.5 -0.5,49.5 -0.5,45.5 Z"/></g>
<g><path style="opacity:1" fill="#fbdf59" d="M 36.5,59.5 C 36.5,60.1667 36.8333,60.5 37.5,60.5C 38.1098,61.391 38.4431,62.391 38.5,63.5C 34.5,63.5 30.5,63.5 26.5,63.5C 27.9581,57.3461 31.2914,56.0128 36.5,59.5 Z"/></g>
<g><path style="opacity:1" fill="#b3ceec" d="M -0.5,57.5 C 1.3264,59.1475 2.65974,61.1475 3.5,63.5C 2.16667,63.5 0.833333,63.5 -0.5,63.5C -0.5,61.5 -0.5,59.5 -0.5,57.5 Z"/></g>
<g><path style="opacity:1" fill="#5b5a9c" d="M 37.5,60.5 C 40.089,60.461 42.089,61.461 43.5,63.5C 41.8333,63.5 40.1667,63.5 38.5,63.5C 38.4431,62.391 38.1098,61.391 37.5,60.5 Z"/></g>
</svg>
