<?xml version="1.0" standalone="no"?>
<!DOCTYPE svg PUBLIC "-//W3C//DTD SVG 20010904//EN"
 "http://www.w3.org/TR/2001/REC-SVG-20010904/DTD/svg10.dtd">
<svg version="1.0" xmlns="http://www.w3.org/2000/svg"
 width="300.000000pt" height="321.000000pt" viewBox="0 0 300.000000 321.000000"
 preserveAspectRatio="xMidYMid meet">
<metadata>
Created by potrace 1.10, written by Peter Selinger 2001-2011
</metadata>
<g transform="translate(0.000000,321.000000) scale(0.100000,-0.100000)"
fill="#000000" stroke="none">
<path d="M1405 2848 c-49 -28 -91 -52 -93 -54 -3 -2 120 -186 139 -207 4 -5
37 53 73 129 36 75 65 138 64 139 -33 21 -77 45 -84 45 -5 0 -49 -23 -99 -52z
m119 -3 c13 -13 10 -24 -24 -98 -21 -45 -44 -82 -49 -82 -13 0 -81 93 -81 110
0 10 116 85 132 85 4 0 13 -7 22 -15z"/>
<path d="M1611 2818 c-5 -13 -34 -77 -65 -142 -31 -65 -56 -125 -56 -133 0 -8
55 -94 123 -191 67 -98 140 -205 162 -240 22 -34 43 -62 47 -62 12 0 280 502
272 510 -5 4 -90 53 -189 110 -99 57 -204 118 -233 137 l-52 33 -9 -22z m169
-115 c63 -37 117 -69 120 -73 3 -3 25 -16 51 -28 25 -13 57 -33 72 -45 l27
-22 -52 -100 c-118 -225 -164 -305 -175 -309 -7 -3 -45 43 -91 112 -44 64
-107 157 -141 206 -33 50 -61 96 -61 103 0 7 23 62 52 123 40 85 55 109 67
105 9 -3 68 -36 131 -72z"/>
<path d="M910 2559 c-195 -115 -390 -228 -433 -252 l-77 -42 2 -63 3 -63 265
-324 c146 -178 269 -323 273 -322 5 1 60 113 123 247 63 135 172 367 241 515
70 149 128 272 130 274 1 2 9 -1 17 -8 20 -17 31 18 11 38 -13 14 -15 14 -15
-2 0 -9 -3 -17 -7 -17 -5 1 -42 51 -83 112 -42 62 -80 113 -85 114 -6 1 -170
-92 -365 -207z m372 144 c9 -10 39 -51 66 -91 40 -59 49 -78 43 -95 -5 -12
-45 -98 -89 -192 -44 -93 -92 -197 -107 -230 -32 -69 -89 -190 -186 -393 -38
-79 -73 -142 -79 -140 -5 1 -36 35 -67 74 -121 149 -231 283 -325 397 -90 109
-98 121 -98 161 0 50 7 58 105 112 38 21 77 44 87 49 9 6 40 24 70 41 29 17
80 47 113 66 363 212 441 257 446 257 3 1 13 -7 21 -16z"/>
<path d="M1991 2273 l-143 -265 42 -62 c24 -33 148 -215 278 -404 129 -189
238 -340 242 -335 4 4 51 88 104 185 l96 177 0 344 0 345 -217 127 c-120 71
-227 134 -238 140 -19 12 -28 -2 -164 -252z m248 162 c40 -25 74 -45 76 -45 2
0 50 -29 108 -63 57 -35 111 -67 120 -70 25 -10 28 -54 25 -387 l-3 -315 -79
-142 c-67 -120 -82 -141 -94 -131 -8 7 -49 64 -92 128 -84 126 -294 431 -359
523 -23 31 -41 67 -41 79 0 19 24 69 115 233 15 28 44 79 63 115 42 78 71 120
81 120 4 0 40 -20 80 -45z"/>
<path d="M1387 2338 c-41 -90 -101 -217 -132 -283 -32 -66 -88 -185 -125 -265
-37 -80 -88 -189 -113 -242 l-46 -97 52 -64 c167 -206 260 -317 265 -317 4 0
117 203 252 451 135 248 251 458 257 467 10 14 14 15 22 3 12 -19 24 3 16 30
-6 19 -8 19 -19 4 -10 -15 -35 16 -176 222 -89 131 -166 242 -170 246 -4 4
-41 -66 -83 -155z m209 -88 c53 -80 112 -165 131 -189 18 -24 33 -49 33 -54 0
-9 -87 -174 -174 -329 -14 -26 -39 -71 -54 -100 -181 -338 -233 -430 -248
-435 -19 -6 -264 292 -264 321 0 9 4 24 10 34 12 21 150 313 150 317 0 3 31
69 160 340 29 61 66 139 82 175 38 83 47 95 63 78 7 -7 57 -78 111 -158z"/>
<path d="M400 1533 l1 -558 120 -68 c66 -38 122 -67 124 -65 2 1 33 68 70 148
102 221 207 445 211 449 2 2 10 -1 18 -8 18 -15 28 6 14 32 -9 17 -10 17 -22
2 -10 -15 -37 14 -207 222 -108 131 -226 275 -262 321 l-67 83 0 -558z m147
319 c49 -59 95 -115 103 -126 8 -10 22 -26 31 -35 8 -9 50 -59 92 -112 42 -53
83 -102 92 -109 8 -7 15 -19 15 -27 0 -13 -52 -130 -157 -353 -24 -52 -54
-116 -66 -142 -12 -26 -29 -48 -37 -48 -8 0 -51 22 -95 48 l-80 48 -5 255 c-7
350 -2 721 10 714 5 -3 49 -54 97 -113z"/>
<path d="M1762 1852 c-34 -64 -102 -189 -150 -277 -49 -88 -108 -196 -131
-240 -24 -44 -70 -129 -103 -188 -33 -59 -58 -113 -56 -118 5 -15 432 -538
440 -538 3 -1 90 48 193 107 l186 108 120 224 c101 185 119 226 111 244 -10
23 -517 763 -536 783 -9 10 -26 -14 -74 -105z m143 -55 c102 -145 268 -386
355 -515 l84 -123 -27 -52 c-55 -107 -141 -264 -176 -321 -34 -56 -44 -64
-196 -152 -88 -52 -165 -94 -172 -94 -7 0 -37 30 -67 68 -107 132 -160 198
-210 258 -78 93 -120 145 -129 160 -7 13 35 94 415 792 22 40 45 71 51 69 7
-2 39 -42 72 -90z"/>
<path d="M2517 1323 l-88 -162 68 -100 c108 -160 114 -150 111 175 l-3 249
-88 -162z m53 -141 c0 -71 -3 -132 -7 -135 -9 -10 -82 94 -83 117 0 23 67 146
80 146 6 0 10 -54 10 -128z"/>
<path d="M936 1378 c-31 -75 -249 -534 -258 -545 -7 -8 18 -28 89 -69 54 -31
135 -79 181 -106 45 -26 86 -48 90 -48 4 0 33 48 65 108 31 59 79 148 107 197
27 50 51 95 53 100 2 6 10 5 19 -3 13 -10 17 -10 22 4 9 24 -12 44 -24 24 -7
-10 -12 -11 -17 -4 -18 25 -306 374 -309 374 -2 0 -10 -15 -18 -32z m120 -144
c43 -53 87 -106 98 -118 43 -49 66 -84 66 -99 0 -9 -13 -38 -28 -64 -16 -26
-54 -95 -85 -153 -86 -160 -70 -151 -163 -98 -192 109 -214 124 -214 139 0 9
18 53 40 98 22 45 40 83 40 86 0 2 25 57 56 122 31 65 63 133 71 151 8 17 21
32 28 32 7 0 48 -43 91 -96z"/>
<path d="M2396 1175 c-7 -19 3 -47 15 -39 5 3 9 14 9 24 0 24 -16 34 -24 15z"/>
<path d="M2365 1043 c-22 -42 -68 -126 -102 -186 -35 -61 -61 -112 -60 -113 2
-2 19 7 38 19 19 13 93 57 164 97 72 41 132 75 134 77 3 2 -5 13 -15 26 -11
12 -40 52 -65 89 -24 37 -46 67 -49 68 -3 0 -23 -35 -45 -77z m100 -65 c15
-26 14 -28 -29 -58 -25 -16 -48 -30 -51 -30 -4 0 -20 -9 -35 -20 -16 -12 -31
-16 -34 -11 -6 9 39 101 82 170 l15 24 19 -24 c10 -13 25 -36 33 -51z"/>
<path d="M1204 828 c-48 -90 -98 -180 -111 -201 -14 -22 -23 -40 -21 -41 17
-13 407 -236 420 -241 11 -4 55 16 125 56 59 34 109 64 111 65 2 1 -43 58
-100 126 -57 68 -152 185 -213 260 -60 75 -113 137 -117 137 -3 1 -46 -72 -94
-161z m130 65 c44 -52 101 -119 136 -163 19 -24 51 -62 70 -85 128 -152 136
-163 124 -175 -5 -4 -43 -26 -84 -49 l-76 -40 -44 23 c-121 62 -330 191 -330
204 0 19 161 312 172 312 4 0 19 -12 32 -27z"/>
</g>
</svg>